<svg width="100" height="100" viewBox="0 0 40 40" fill="none" xmlns="http://www.w3.org/2000/svg">
<g clip-path="url(#clip0_789_2464)">
<path d="M18.0061 1.14648C19.2406 0.436646 20.7594 0.436647 21.9939 1.14648L37.9939 10.3465C39.2349 11.0601 40 12.3825 40 13.8141V36C40 38.2091 38.2091 40 36 40H4C1.79086 40 0 38.2091 0 36V13.8141C0 12.3825 0.765066 11.0601 2.00612 10.3465L18.0061 1.14648Z" fill="url(#paint0_linear_789_2464)"/>
<path opacity="0.3" d="M40 21.8205V36C40 38.2091 38.2091 40 36 40H4C1.79086 40 0 38.2091 0 36V25.0319C11.1492 15.906 27.3812 14.4281 40 21.8205Z" fill="#3F69FF"/>
<path opacity="0.3" d="M40 14.9231V36C40 38.2091 38.2091 40 36 40H4C1.79086 40 0 38.2091 0 36V14.9231C13.0006 10.9209 26.9994 10.9209 40 14.9231Z" fill="#3F69FF"/>
<path opacity="0.8" d="M40 32.7288V36C40 38.2091 38.2091 40 36 40H4C1.79086 40 0 38.2091 0 36V32.7288C4.29969 26.262 11.6521 22 20 22C28.3479 22 35.7003 26.262 40 32.7288Z" fill="#3F69FF"/>
</g>
<defs>
<linearGradient id="paint0_linear_789_2464" x1="-34.75" y1="8" x2="40" y2="15.75" gradientUnits="userSpaceOnUse">
<stop stop-color="#3F69FF"/>
<stop offset="1" stop-color="#FFBFA4"/>
</linearGradient>
<clipPath id="clip0_789_2464">
<rect width="100" height="100" fill="white"/>
</clipPath>
</defs>
</svg>
